<?xml version="1.0" encoding="UTF-8"?>
<svg version="1.1" xmlns="http://www.w3.org/2000/svg" width="177" height="173">
<path d="M0 0 C58.41 0 116.82 0 177 0 C177 57.09 177 114.18 177 173 C118.59 173 60.18 173 0 173 C0 115.91 0 58.82 0 0 Z " fill="#020202" transform="translate(0,0)"/>
<path d="M0 0 C49.17 0 98.34 0 149 0 C149 49.17 149 98.34 149 149 C134.15 149 119.3 149 104 149 C104 119.96 104 90.92 104 61 C69.68 61 35.36 61 0 61 C0 40.87 0 20.74 0 0 Z " fill="#FBFBFB" transform="translate(12,14)"/>
<path d="M0 0 C11.4159375 -0.061875 11.4159375 -0.061875 23.0625 -0.125 C25.45250244 -0.14320801 27.84250488 -0.16141602 30.30493164 -0.18017578 C32.21500423 -0.18602109 34.12507932 -0.19111656 36.03515625 -0.1953125 C37.01415894 -0.20554443 37.99316162 -0.21577637 39.00183105 -0.22631836 C47.11459217 -0.22837509 53.50933863 0.66323398 60 6 C63.87382757 11.52600448 64.58378033 15.52301203 64.375 22.1875 C64.37371094 22.98091797 64.37242188 23.77433594 64.37109375 24.59179688 C64.31066955 28.58986496 64.14437368 31.51539276 62 35 C62.24011247 38.84179951 64.3375852 40.42078566 67 43 C68.3066568 46.91997041 68.18421613 50.66486383 68.1875 54.75 C68.19974609 55.53632813 68.21199219 56.32265625 68.22460938 57.1328125 C68.23903352 62.92170253 67.94319396 68.38416198 64.375 73.1875 C56.77730338 78.98574216 50.73608743 79.5603313 41.40625 79.390625 C40.35276367 79.38659668 39.29927734 79.38256836 38.21386719 79.37841797 C34.30906556 79.35761784 30.40451379 79.30177306 26.5 79.25 C13.3825 79.12625 13.3825 79.12625 0 79 C0 52.93 0 26.86 0 0 Z " fill="#F9F9F9" transform="translate(32,83)"/>
<path d="M0 0 C7.651875 -0.020625 15.30375 -0.04125 23.1875 -0.0625 C26.79981567 -0.07615601 26.79981567 -0.07615601 30.48510742 -0.09008789 C32.4002273 -0.09300933 34.3153478 -0.09555735 36.23046875 -0.09765625 C37.71432068 -0.1053302 37.71432068 -0.1053302 39.22814941 -0.11315918 C40.65858582 -0.11334045 40.65858582 -0.11334045 42.11791992 -0.11352539 C42.94176682 -0.115746 43.76561371 -0.11796661 44.61442566 -0.12025452 C47.15755317 0.0079421 49.51840931 0.44270612 52 1 C52 1.33 52 1.66 52 2 C35.5 2 19 2 2 2 C2 27.08 2 52.16 2 78 C29.225 77.505 29.225 77.505 57 77 C53.65383108 79.23077928 52.60406041 79.24524037 48.70239258 79.22705078 C47.60640747 79.22680908 46.51042236 79.22656738 45.38122559 79.22631836 C44.23061646 79.21608643 43.08000732 79.20585449 41.89453125 79.1953125 C40.30674866 79.19229126 40.30674866 79.19229126 38.68688965 79.18920898 C34.72871575 79.1787365 30.77060357 79.15081397 26.8125 79.125 C13.5403125 79.063125 13.5403125 79.063125 0 79 C0 52.93 0 26.86 0 0 Z " fill="#A1A1A1" transform="translate(32,83)"/>
<path d="M0 0 C2.45862401 -0.05383848 4.9160755 -0.09359038 7.375 -0.125 C8.42300781 -0.15013672 8.42300781 -0.15013672 9.4921875 -0.17578125 C11.32897486 -0.19344267 13.16601963 -0.10303261 15 0 C17 2 17 2 17.3125 5.5 C17.209375 6.655 17.10625 7.81 17 9 C13.2632157 11.49118953 11.25548181 11.2065226 6.8125 11.125 C5.54019531 11.10695312 4.26789062 11.08890625 2.95703125 11.0703125 C1.49330078 11.03550781 1.49330078 11.03550781 0 11 C0 7.37 0 3.74 0 0 Z " fill="#121212" transform="translate(58,131)"/>
<path d="M0 0 C1.97909398 -0.02686553 3.95828971 -0.04633375 5.9375 -0.0625 C7.03964844 -0.07410156 8.14179687 -0.08570312 9.27734375 -0.09765625 C12 0 12 0 13 1 C13.0979057 2.49738124 13.12974864 3.99942892 13.125 5.5 C13.12757812 6.3146875 13.13015625 7.129375 13.1328125 7.96875 C13 10 13 10 12 11 C9.98035801 11.07244053 7.95832876 11.08377188 5.9375 11.0625 C4.83277344 11.05347656 3.72804687 11.04445313 2.58984375 11.03515625 C1.30787109 11.01775391 1.30787109 11.01775391 0 11 C0 7.37 0 3.74 0 0 Z " fill="#111111" transform="translate(58,104)"/>
</svg>
