<?xml version="1.0" encoding="UTF-8"?>
<svg version="1.1" xmlns="http://www.w3.org/2000/svg" width="245" height="60">
<path d="M0 0 C80.85 0 161.7 0 245 0 C245 19.8 245 39.6 245 60 C164.15 60 83.3 60 0 60 C0 40.2 0 20.4 0 0 Z " fill="#060606" transform="translate(0,0)"/>
<path d="M0 0 C3.856875 -0.0825 7.71375 -0.165 11.6875 -0.25 C13.4986731 -0.30462402 13.4986731 -0.30462402 15.34643555 -0.36035156 C19.91718337 -0.40781599 23.13835427 -0.4401212 27.2578125 1.6640625 C29.43523401 4.58356489 29.47332988 6.03032587 29.1875 9.625 C28.94753714 12.46131448 28.94753714 12.46131448 29 15 C29.66 15.66 30.32 16.32 31 17 C31.37109375 19.6796875 31.37109375 19.6796875 31.4375 22.875 C31.47746094 23.92429687 31.51742187 24.97359375 31.55859375 26.0546875 C31 29 31 29 28.85107422 31.15966797 C25.50219263 33.32132831 23.77144746 33.46840291 19.82421875 33.390625 C18.78096436 33.38063477 17.73770996 33.37064453 16.6628418 33.36035156 C14.69504761 33.30572754 14.69504761 33.30572754 12.6875 33.25 C6.4071875 33.12625 6.4071875 33.12625 0 33 C0 22.11 0 11.22 0 0 Z " fill="#F0F0F0" transform="translate(13,13)"/>
<path d="M0 0 C3.8775 -0.0825 7.755 -0.165 11.75 -0.25 C12.96655273 -0.28641602 14.18310547 -0.32283203 15.43652344 -0.36035156 C16.88333496 -0.37533691 16.88333496 -0.37533691 18.359375 -0.390625 C19.34389648 -0.41157227 20.32841797 -0.43251953 21.34277344 -0.45410156 C24.7293015 0.12463256 25.90815152 1.33280019 28 4 C28 4.66 28 5.32 28 6 C28.66 6 29.32 6 30 6 C30.29554009 9.38229214 30.44109955 12.62688582 30 16 C27.5 18.8125 27.5 18.8125 25 21 C24.58013054 23.71163778 24.58013054 23.71163778 25 26 C25.66 26 26.32 26 27 26 C27.66 28.31 28.32 30.62 29 33 C23.88213027 33.88239133 23.88213027 33.88239133 21 33 C19.1515987 30.55435582 17.85184855 28.01740555 16.453125 25.29296875 C15.11183356 22.64224808 15.11183356 22.64224808 11.625 21.875 C10.75875 21.91625 9.8925 21.9575 9 22 C9 25.63 9 29.26 9 33 C6.03 33 3.06 33 0 33 C0 22.11 0 11.22 0 0 Z " fill="#EBEBEB" transform="translate(50,13)"/>
<path d="M0 0 C9.24 0 18.48 0 28 0 C28 2.31 28 4.62 28 7 C21.73 7 15.46 7 9 7 C9 8.98 9 10.96 9 13 C13.62 13 18.24 13 23 13 C23 15.64 23 18.28 23 21 C18.38 21 13.76 21 9 21 C9 22.65 9 24.3 9 26 C10.28777344 25.98839844 11.57554688 25.97679688 12.90234375 25.96484375 C14.58072772 25.9554673 16.25911326 25.94636695 17.9375 25.9375 C19.21270508 25.92493164 19.21270508 25.92493164 20.51367188 25.91210938 C21.32255859 25.90888672 22.13144531 25.90566406 22.96484375 25.90234375 C23.7137085 25.89710693 24.46257324 25.89187012 25.23413086 25.88647461 C27 26 27 26 28 27 C28.125 30 28.125 30 28 33 C27 34 27 34 24.40795898 34.11352539 C23.28204346 34.10828857 22.15612793 34.10305176 20.99609375 34.09765625 C19.90224365 34.09515869 18.80839355 34.09266113 17.68139648 34.09008789 C15.58066772 34.07643188 15.58066772 34.07643188 13.4375 34.0625 C6.7859375 34.0315625 6.7859375 34.0315625 0 34 C0 22.78 0 11.56 0 0 Z " fill="#FCFCFC" transform="translate(102,13)"/>
<path d="M0 0 C9.24 0 18.48 0 28 0 C28 2.31 28 4.62 28 7 C21.73 7 15.46 7 9 7 C9 9.64 9 12.28 9 15 C13.62 15 18.24 15 23 15 C23 16.98 23 18.96 23 21 C18.38 21 13.76 21 9 21 C9 25.29 9 29.58 9 34 C6.03 34 3.06 34 0 34 C0 22.78 0 11.56 0 0 Z " fill="#EAEAEA" transform="translate(136,13)"/>
<path d="M0 0 C2.97 0 5.94 0 9 0 C10 1 10 1 10.11352539 3.50024414 C10.10828857 4.58426514 10.10305176 5.66828613 10.09765625 6.78515625 C10.09443359 7.95498047 10.09121094 9.12480469 10.08789062 10.33007812 C10.07951172 11.56177734 10.07113281 12.79347656 10.0625 14.0625 C10.05798828 15.29806641 10.05347656 16.53363281 10.04882812 17.80664062 C10.03699618 20.87111413 10.01906008 23.93556293 10 27 C15.94 27 21.88 27 28 27 C28 29.64 28 32.28 28 35 C18.76 35 9.52 35 0 35 C0 23.45 0 11.9 0 0 Z " fill="#F8F8F8" transform="translate(170,12)"/>
<path d="M0 0 C3.22144909 -0.72318245 5.80855029 -0.93420601 9 0 C12.10579745 3.42650479 16 8.18973919 16 13 C16.66 13 17.32 13 18 13 C18.2475 12.13375 18.495 11.2675 18.75 10.375 C20.15177136 6.59021732 21.23813466 3.97431652 24 1 C27.06152757 0.49238921 29.92670687 0.64538925 33 1 C32.26595068 4.67922273 30.65042977 6.97622533 28.40576172 9.97631836 C22.45541316 18.01311251 20.46658481 23.8180453 21 34 C18.36 34 15.72 34 13 34 C12.96261719 33.11957031 12.92523438 32.23914062 12.88671875 31.33203125 C12.82097656 30.17058594 12.75523437 29.00914063 12.6875 27.8125 C12.62949219 26.66394531 12.57148438 25.51539062 12.51171875 24.33203125 C11.84129648 19.96660993 10.3381015 17.24889474 7.125 14.25 C3.47820067 10.38868306 0 5.41035492 0 0 Z " fill="#EBEBEB" transform="translate(196,12)"/>
<path d="M0 0 C2.64 0 5.28 0 8 0 C8 10.89 8 21.78 8 33 C5.36 33 2.72 33 0 33 C0 22.11 0 11.22 0 0 Z " fill="#F3F3F3" transform="translate(87,13)"/>
<path d="M0 0 C9.24 0 18.48 0 28 0 C28 2.31 28 4.62 28 7 C21.73 7 15.46 7 9 7 C9 8.98 9 10.96 9 13 C13.62 13 18.24 13 23 13 C23 15.64 23 18.28 23 21 C18.38 21 13.76 21 9 21 C9 22.65 9 24.3 9 26 C10.28777344 25.98839844 11.57554688 25.97679688 12.90234375 25.96484375 C14.58072772 25.9554673 16.25911326 25.94636695 17.9375 25.9375 C19.21270508 25.92493164 19.21270508 25.92493164 20.51367188 25.91210938 C21.32255859 25.90888672 22.13144531 25.90566406 22.96484375 25.90234375 C23.7137085 25.89710693 24.46257324 25.89187012 25.23413086 25.88647461 C27 26 27 26 28 27 C28.125 30 28.125 30 28 33 C27 34 27 34 24.40795898 34.11352539 C23.28204346 34.10828857 22.15612793 34.10305176 20.99609375 34.09765625 C19.90224365 34.09515869 18.80839355 34.09266113 17.68139648 34.09008789 C15.58066772 34.07643188 15.58066772 34.07643188 13.4375 34.0625 C6.7859375 34.0315625 6.7859375 34.0315625 0 34 C0 22.78 0 11.56 0 0 Z M1 1 C1 11.56 1 22.12 1 33 C9.25 33 17.5 33 26 33 C26 31.35 26 29.7 26 28 C20.72 27.67 15.44 27.34 10 27 C9.34 24.69 8.68 22.38 8 20 C12.62 20 17.24 20 22 20 C22 18.02 22 16.04 22 14 C17.38 14 12.76 14 8 14 C8 11.36 8 8.72 8 6 C13.94 6 19.88 6 26 6 C26 4.35 26 2.7 26 1 C17.75 1 9.5 1 1 1 Z " fill="#AEAEAE" transform="translate(102,13)"/>
<path d="M0 0 C2.97 0 5.94 0 9 0 C10 1 10 1 10.11352539 3.50024414 C10.10828857 4.58426514 10.10305176 5.66828613 10.09765625 6.78515625 C10.09443359 7.95498047 10.09121094 9.12480469 10.08789062 10.33007812 C10.07951172 11.56177734 10.07113281 12.79347656 10.0625 14.0625 C10.05798828 15.29806641 10.05347656 16.53363281 10.04882812 17.80664062 C10.03699618 20.87111413 10.01906008 23.93556293 10 27 C15.94 27 21.88 27 28 27 C28 27.33 28 27.66 28 28 C21.4 28 14.8 28 8 28 C8 19.42 8 10.84 8 2 C5.69 2 3.38 2 1 2 C1 12.56 1 23.12 1 34 C9.91 34 18.82 34 28 34 C28 34.33 28 34.66 28 35 C18.76 35 9.52 35 0 35 C0 23.45 0 11.9 0 0 Z " fill="#848484" transform="translate(170,12)"/>
<path d="M0 0 C1.97909398 -0.02686553 3.95828971 -0.04633375 5.9375 -0.0625 C7.03964844 -0.07410156 8.14179687 -0.08570312 9.27734375 -0.09765625 C12 0 12 0 13 1 C13.1875 3.9375 13.1875 3.9375 13 7 C11 9 11 9 8.3984375 9.1953125 C7.40070313 9.17210937 6.40296875 9.14890625 5.375 9.125 C3.87066406 9.09792969 3.87066406 9.09792969 2.3359375 9.0703125 C1.56507812 9.04710937 0.79421875 9.02390625 0 9 C0 6.03 0 3.06 0 0 Z " fill="#323232" transform="translate(58,20)"/>
<path d="M0 0 C1.093125 0.00257812 2.18625 0.00515625 3.3125 0.0078125 C4.405625 0.00523438 5.49875 0.00265625 6.625 0 C9.3125 0.1328125 9.3125 0.1328125 10.3125 1.1328125 C10.3125 3.1128125 10.3125 5.0928125 10.3125 7.1328125 C5.6925 7.1328125 1.0725 7.1328125 -3.6875 7.1328125 C-3.6875 0.1822311 -3.6875 0.1822311 0 0 Z " fill="#1A1A1A" transform="translate(24.6875,31.8671875)"/>
<path d="M0 0 C2.97922593 -0.02683987 5.95821295 -0.04676037 8.9375 -0.0625 C10.21270508 -0.07506836 10.21270508 -0.07506836 11.51367188 -0.08789062 C12.32255859 -0.09111328 13.13144531 -0.09433594 13.96484375 -0.09765625 C14.7137085 -0.10289307 15.46257324 -0.10812988 16.23413086 -0.11352539 C18 0 18 0 19 1 C19.125 4 19.125 4 19 7 C18 8 18 8 15.40795898 8.11352539 C14.28204346 8.10828857 13.15612793 8.10305176 11.99609375 8.09765625 C10.78115234 8.09443359 9.56621094 8.09121094 8.31445312 8.08789062 C7.03505859 8.07951172 5.75566406 8.07113281 4.4375 8.0625 C3.15423828 8.05798828 1.87097656 8.05347656 0.54882812 8.04882812 C-2.63416022 8.03699545 -5.81705762 8.02051068 -9 8 C-9 7.67 -9 7.34 -9 7 C-0.42 7 8.16 7 17 7 C17 5.35 17 3.7 17 2 C11.72 2 6.44 2 1 2 C0.67 1.34 0.34 0.68 0 0 Z " fill="#939393" transform="translate(111,39)"/>
<path d="M0 0 C3.96 0 7.92 0 12 0 C12 1.65 12 3.3 12 5 C11 6 11 6 8.49609375 6.09765625 C6.98208984 6.08025391 6.98208984 6.08025391 5.4375 6.0625 C4.42558594 6.05347656 3.41367187 6.04445313 2.37109375 6.03515625 C1.58863281 6.02355469 0.80617188 6.01195312 0 6 C0 4.02 0 2.04 0 0 Z " fill="#343434" transform="translate(21,20)"/>
<path d="M0 0 C2.97 0 5.94 0 9 0 C9 0.66 9 1.32 9 2 C6.69 2 4.38 2 2 2 C2.66 3.98 3.32 5.96 4 8 C1 6 1 6 0.3125 2.875 C0.209375 1.92625 0.10625 0.9775 0 0 Z " fill="#808080" transform="translate(196,12)"/>
</svg>
